# xmcd
#
# Track frame offsets:
#	183
#	22233
#	35208
#	53608
#	65983
#	86308
#	102563
#	116958
#	131565
#	147783
#	164833
#	188283
#	204448
#	219120
#	237733
#	248920
#
# Disc length: 3565 seconds
#
# Revision: 1
# Processed by: cddbd v1.5.2PL0 Copyright (c) Steve Scherf et al.
# Submitted via: audiograbber 1.83.01
#
DISCID=f30deb10
DTITLE=Paolo Conte - Superbest
DYEAR=1996
DGENRE=
TTITLE0=Le Chic et le Charme
TTITLE1=La Giarrettiera Rossa
TTITLE2=Dancing
TTITLE3=La Topolino Amaranto
TTITLE4=Onda su Onda
TTITLE5=Una Giornata al Mare
TTITLE6=Wanda, stai seria con la faccia ma però
TTITLE7=Questa soprca vita
TTITLE8=Blue Haways
TTITLE9=La Vera Musica
TTITLE10=Gelato al Limon
TTITLE11=Uomo Camion
TTITLE12=La Donna d'Inverno
TTITLE13=Lo Zio
TTITLE14=Bartali
TTITLE15=Fuga all'Inglese
EXTD=
EXTT0=
EXTT1=
EXTT2=
EXTT3=
EXTT4=
EXTT5=
EXTT6=
EXTT7=
EXTT8=
EXTT9=
EXTT10=
EXTT11=
EXTT12=
EXTT13=
EXTT14=
EXTT15=
PLAYORDER=
